<svg width="201" height="59" viewBox="0 0 201 59" fill="none" xmlns="http://www.w3.org/2000/svg">
<path opacity="0.31" d="M70.019 40.1334L64.7436 37.5796L58.7902 44.6794L57.7906 43.2604L59.0348 33.7164L54.1066 18.8831L42.8125 22.8815L45.8207 30.4542L55.4884 53.7271L57.6205 59.0001L57.8675 57.4692L60.2232 48.4867L63.5157 44.8308L69.3946 44.3788L60.0321 37.8988L70.019 40.1334Z" fill="#2A72DA"/>
<path d="M60.9244 12.205C64.417 12.205 67.2483 9.47279 67.2483 6.10248C67.2483 2.73217 64.417 0 60.9244 0C57.4317 0 54.6004 2.73217 54.6004 6.10248C54.6004 9.47279 57.4317 12.205 60.9244 12.205Z" fill="#0047AB"/>
<path d="M77.6148 48.9666L73.7678 50.8982C72.6493 48.7708 70.2773 47.3611 67.5906 47.5755C64.4473 47.8272 61.9401 50.3553 61.8096 53.396C61.7607 54.5308 62.031 55.6026 62.5483 56.53L62.2873 56.6605L60.2321 57.6904L57.6224 58.9999C56.2756 55.9591 55.1361 52.9067 54.1738 49.8939C54.0177 49.4116 53.8662 48.9246 53.7218 48.4423V48.4376C53.6146 48.0835 53.5074 47.72 53.4258 47.438C53.3443 47.1584 53.2884 46.965 53.2884 46.965C51.5617 40.9418 50.5062 35.1655 49.8724 30.0976L49.8771 30.1954C49.0336 24.6335 48.9916 18.5777 48.9916 18.5777C48.9637 17.5711 48.9567 16.66 48.9567 15.8561C48.9567 15.3691 48.9567 14.9194 48.966 14.514C48.9916 12.9016 49.0499 11.9486 49.0569 11.8134V11.7971L52.4262 12.2538L54.1272 12.5381C54.1156 12.6872 54.1086 12.8387 54.1086 12.9901C54.1086 16.3617 56.9397 19.0926 60.4302 19.0926C63.3428 19.0926 65.7918 17.1959 66.5258 14.6119L68.3433 14.9148L71.1046 15.3997C71.1113 15.4009 71.1161 15.4067 71.1161 15.4134C71.1091 15.5089 71.0346 16.8697 71.0439 19.0577C71.0439 19.0577 71.2047 25.2277 71.4656 27.609C71.7942 30.9853 72.3487 34.7251 73.2878 38.381C73.2924 38.3927 73.2948 38.402 73.2971 38.4136C73.6513 39.8513 73.7002 39.8956 73.7025 39.8956C74.6439 43.1507 75.9115 46.2823 77.6171 48.9642L77.6148 48.9666Z" fill="#6495ED"/>
<path d="M15.0169 26.2772C15.0169 18.2716 14.7388 9.01297 8.27319 9.08258C4.37992 9.29143 1.25141 12.2152 0.695226 15.9744H0L1.39045 7.69031H39.8364L41.2269 15.9744H40.5317C39.6974 11.9368 36.1517 9.01297 31.9804 9.08258C25.8624 9.08258 25.2367 15.139 25.2367 25.7899C25.2367 45.421 27.3919 55.515 29.5471 55.515V56.2112H11.4017V55.515C13.1398 55.515 15.0169 46.9525 15.0169 26.2772Z" fill="#6495ED"/>
<path d="M168.681 56.1902V55.4944C170.073 55.3552 172.23 50.4843 172.647 43.8043C173.552 29.47 190.878 31.9055 190.878 30.305C190.878 28.7046 172.787 32.9492 172.369 18.9629C172.299 16.0404 170.351 8.31656 168.681 8.31656V7.69031H198.88L200.272 15.9708H199.576C198.602 11.8653 194.984 9.0124 190.809 9.0124C185.312 9.0124 182.946 13.9528 182.737 18.4758C181.902 34.1321 192.27 26.4083 192.27 30.3746C192.27 34.4801 181.345 27.3129 182.25 42.1343C182.737 50.0668 185.868 54.7985 190.6 54.7985C194.705 54.5898 198.324 51.8064 199.507 47.8401H200.203L198.811 56.1902H168.681Z" fill="#0047AB"/>
<path d="M127.796 56.1902H119.446V55.4944C121.534 55.4944 122.925 43.6651 122.925 30.7225C123.134 23.9729 122.508 17.1537 121.047 10.5432C120.281 9.22115 119.377 8.38614 118.333 8.38614L118.054 7.69031H135.381L135.659 8.38614C128.005 8.38614 140.113 53.3373 146.027 53.3373C146.932 53.3373 147.558 52.2935 147.558 50.7627C147.558 45.0568 138.443 28.4263 138.443 17.2233C138.443 12.1437 140.391 7.69031 149.645 7.69031H166.972V8.38614C164.884 8.38614 162.797 20.8416 162.797 33.3667C162.797 46.031 164.884 55.4944 166.972 55.4944V56.1902H149.645V55.4944C151.663 55.4944 153.751 43.6651 153.751 28.4263C153.751 17.2929 152.638 9.77782 145.888 9.77782C141.226 9.77782 139.834 13.3266 139.834 17.3625C139.834 27.8696 148.95 43.8043 148.95 50.3452C148.95 52.0152 148.254 53.6156 147.001 54.7289C145.749 55.8423 144.079 56.399 142.409 56.1902C131.206 56.1902 127.796 36.7067 124.665 22.5812C124.456 25.9908 124.317 29.6788 124.317 33.4363C124.317 46.031 125.709 55.4944 127.796 55.4944V56.1902Z" fill="#0047AB"/>
<path d="M116.821 7.69031L116.403 8.38614C114.524 8.38614 107.844 17.9887 101.443 29.1221C101.999 30.4442 102.556 31.7663 103.182 33.158C108.958 45.9614 115.429 55.4944 117.517 55.4944L117.795 56.1902H100.469L100.19 55.4944C101.86 55.4944 99.9814 47.8401 96.2935 38.3768C90.9355 48.4664 88.2218 55.4944 90.031 55.4944L89.6135 56.1902H81.333L81.7505 55.4944C83.4901 55.4944 89.5439 46.866 95.5977 36.7067C94.7626 34.6192 93.8581 32.5317 92.8839 30.4442C87.2476 17.8495 80.8459 8.31656 78.7584 8.31656L78.4105 7.69031H95.7368L96.0847 8.31656C94.2756 8.31656 96.4327 17.0145 100.816 27.5913C106.87 16.4579 110.071 8.31656 108.123 8.31656L108.54 7.69031H116.821Z" fill="#6495ED"/>
</svg>
